<svg width="40" height="40" viewBox="0 0 40 40" fill="none" xmlns="http://www.w3.org/2000/svg">
<rect x="3" y="3" width="34" height="34" rx="1" fill="#362535"/>
<mask id="mask0_12_1144" style="mask-type:alpha" maskUnits="userSpaceOnUse" x="0" y="0" width="40" height="40">
<path d="M12.799 0.586C13.174 0.210901 13.6826 0.000113275 14.213 0H38C38.5304 0 39.0391 0.210714 39.4142 0.585786C39.7893 0.960859 40 1.46957 40 2V38C40 38.5304 39.7893 39.0391 39.4142 39.4142C39.0391 39.7893 38.5304 40 38 40H2C1.46957 40 0.960859 39.7893 0.585786 39.4142C0.210714 39.0391 0 38.5304 0 38V14.213C0.000113275 13.6826 0.210901 13.174 0.586 12.799L12.799 0.586Z" fill="white"/>
</mask>
<g mask="url(#mask0_12_1144)">
<path d="M0.586 12.799L-0.828 11.385L0.586 12.799ZM38 2H14.213V-2H38V2ZM38 38V2H42V38H38ZM2 38H38V42H2V38ZM2 14.213V38H-2V14.213H2V14.213ZM-0.828 11.385L11.385 -0.828L14.213 2L2 14.213L-0.828 11.385V11.385ZM-2 14.213C-1.99977 13.1522 -1.5782 12.135 -0.828 11.385L2 14.213H-2ZM2 42C0.939134 42 -0.0782816 41.5786 -0.828427 40.8284C-1.57857 40.0783 -2 39.0609 -2 38H2V42ZM42 38C42 39.0609 41.5786 40.0783 40.8284 40.8284C40.0783 41.5786 39.0609 42 38 42V38H42ZM14.213 2L11.385 -0.828C12.135 -1.5782 13.1522 -1.99977 14.213 -2V2ZM38 -2C39.0609 -2 40.0783 -1.57857 40.8284 -0.828427C41.5786 -0.0782816 42 0.939134 42 2H38V-2Z" fill="#EB5BE5"/>
</g>
</svg>
